<svg width="64" height="64" viewBox="0 0 64 64" fill="none" xmlns="http://www.w3.org/2000/svg">
<rect width="64" height="64" rx="12" fill="#34C759"/>
<g clip-path="url(#clip0_39_664)">
<path d="M23.3392 44.0202C23.4892 44.0152 23.6342 43.9452 23.7392 43.8352C23.8392 43.7252 23.8942 43.5802 23.8842 43.4252C23.8792 43.2752 23.8142 43.1302 23.7042 43.0302C23.5992 42.9302 23.4592 42.8802 23.3192 42.8802H23.2942C23.1442 42.8852 22.9992 42.9552 22.8992 43.0602C22.7942 43.1702 22.7392 43.3202 22.7492 43.4752C22.7542 43.7902 23.0192 44.0252 23.3392 44.0202ZM32.0442 32.3252C30.7992 32.3252 29.7892 33.3352 29.7892 34.5752C29.7892 35.8152 30.7992 36.8252 32.0442 36.8252C33.2842 36.8252 34.2942 35.8152 34.2942 34.5752C34.2942 33.3352 33.2842 32.3252 32.0442 32.3252Z" fill="white"/>
<path d="M47.8904 23.295C47.8154 23.22 47.7154 23.18 47.6104 23.18C47.5054 23.18 47.4104 23.22 47.3404 23.29L42.0154 28.505L39.8954 26.73C39.8254 26.67 39.7354 26.64 39.6454 26.64C39.5354 26.64 39.4254 26.69 39.3554 26.77L36.0904 30.445C35.5504 29.89 34.9204 29.545 34.1604 29.415L34.9554 26.22C34.9954 26.07 34.9404 25.91 34.8204 25.825C34.7554 25.77 34.6704 25.735 34.5754 25.735C34.5104 25.735 34.4454 25.75 34.3904 25.78L33.2754 26.39L32.1904 25.445C32.1204 25.385 32.0354 25.355 31.9154 25.355C31.9104 25.355 31.9054 25.355 31.9004 25.355C31.7954 25.365 31.7004 25.415 31.6254 25.505L31.0254 26.275L29.4404 25.655C29.3954 25.635 29.3454 25.63 29.2954 25.63C29.1954 25.63 29.1004 25.665 29.0204 25.74C28.9154 25.85 28.8804 26.005 28.9254 26.135L29.9604 29.43C28.6104 29.77 27.6754 30.75 27.0354 32.48L24.5104 30.545C24.4454 30.495 24.3604 30.465 24.2754 30.465C24.1654 30.465 24.0654 30.51 23.9904 30.59L16.1054 39.035C16.0354 39.115 15.9954 39.21 16.0004 39.315C16.0054 39.42 16.0504 39.515 16.1254 39.585C16.1954 39.655 16.2904 39.69 16.3904 39.69C16.5004 39.69 16.6004 39.645 16.6754 39.565L16.6854 39.555V45.255C16.6854 45.47 16.8604 45.645 17.0754 45.645C17.2904 45.645 17.4654 45.47 17.4654 45.255V38.72L21.6304 34.26V37.57C21.6304 37.785 21.8054 37.96 22.0204 37.96C22.2354 37.96 22.4104 37.785 22.4104 37.57V33.425L24.3154 31.38L26.7754 33.265C26.3904 34.62 26.1254 36.505 25.9604 39.02C25.9104 39.02 25.8654 39.015 25.8154 39.015C25.7704 39.015 25.7254 39.015 25.6754 39.02L25.4604 39.03L25.4554 38.96C25.4454 38.805 25.3804 38.66 25.2654 38.555C25.1504 38.45 24.9854 38.39 24.8454 38.4L21.3804 38.535C21.0604 38.55 20.8054 38.825 20.8154 39.145L21.0404 44.76C21.0554 45.075 21.3204 45.325 21.6354 45.325H21.6554L25.1154 45.185C25.4304 45.175 25.6804 44.905 25.6804 44.59L26.7954 44.925C27.8404 45.24 28.9204 45.4 30.0104 45.4C30.1604 45.4 30.3154 45.395 30.4654 45.39L32.0754 45.325C32.7204 45.3 33.3554 45.1 33.9004 44.745L38.1954 41.955C38.5354 41.73 38.7404 41.355 38.7404 40.945C38.7404 40.605 38.6054 40.29 38.3554 40.065C38.2354 39.955 38.0954 39.87 37.9454 39.815C38.1354 39.385 38.2254 38.92 38.2054 38.45C38.0304 34.755 37.5304 32.47 36.5904 31.075L39.6904 27.585L41.6504 29.225V33.825C41.6504 34.04 41.8254 34.215 42.0404 34.215C42.2554 34.215 42.4304 34.04 42.4304 33.825V29.205L46.4254 25.285V34.285C46.4254 34.5 46.6004 34.675 46.8154 34.675C47.0304 34.675 47.2054 34.5 47.2054 34.285V24.51L47.8854 23.845C48.0354 23.695 48.0404 23.445 47.8904 23.295ZM22.5404 42.735C22.7304 42.525 22.9954 42.405 23.2754 42.395C23.5604 42.38 23.8254 42.485 24.0354 42.675C24.2404 42.87 24.3604 43.13 24.3704 43.41V43.465C24.3704 43.73 24.2704 43.98 24.0904 44.17C23.9004 44.38 23.6354 44.495 23.3554 44.51H23.3104C22.7504 44.51 22.2754 44.06 22.2554 43.495C22.2454 43.21 22.3504 42.94 22.5404 42.735ZM37.0354 39.845C37.0254 39.85 37.0154 39.85 37.0104 39.855L33.1954 41.66C33.1304 41.2 32.8654 40.78 32.4604 40.52C32.2404 40.375 31.9804 40.29 31.7154 40.265L29.8954 40.1C29.2904 40.045 28.7104 39.91 28.1654 39.71C28.0004 39.65 27.8354 39.585 27.6754 39.51C27.4604 39.41 27.2554 39.325 27.0704 39.255C26.9604 39.215 26.8454 39.175 26.7304 39.145C26.8954 36.51 27.1754 34.58 27.5904 33.24C28.1554 31.405 29.0104 30.43 30.2854 30.17C30.4604 30.125 30.6054 30.015 30.6954 29.865C30.7604 29.75 30.7854 29.615 30.7654 29.5H33.3404C33.3254 29.64 33.3604 29.785 33.4404 29.895C33.5354 30.035 33.6904 30.13 33.8654 30.16C34.6304 30.275 35.2404 30.625 35.7354 31.24V31.245L35.7654 31.285C36.7154 32.52 37.2404 34.81 37.4104 38.49C37.4504 38.955 37.3104 39.435 37.0354 39.845ZM25.7104 39.795H25.8104C26.1504 39.795 26.4854 39.855 26.8004 39.975C26.9654 40.04 27.1554 40.115 27.3504 40.21C27.5304 40.295 27.7154 40.37 27.9004 40.44C28.5054 40.665 29.1504 40.81 29.8254 40.875L31.6454 41.04C31.7854 41.055 31.9254 41.1 32.0404 41.175C32.2954 41.34 32.4454 41.62 32.4354 41.905C32.4354 41.93 32.4304 41.96 32.4254 41.99L30.1104 42.085C29.8954 42.095 29.7254 42.275 29.7354 42.49C29.7454 42.7 29.9154 42.865 30.1254 42.865L32.5654 42.765C32.6654 42.76 32.7654 42.73 32.8404 42.69L32.8454 42.685L37.3404 40.555C37.4004 40.525 37.4604 40.51 37.5254 40.51C37.6354 40.51 37.7354 40.55 37.8154 40.625C37.9004 40.705 37.9504 40.815 37.9504 40.935C37.9504 41.08 37.8804 41.21 37.7604 41.29L33.4704 44.08C33.0404 44.36 32.5454 44.515 32.0404 44.535L30.4304 44.6C30.2954 44.605 30.1554 44.61 30.0204 44.61C29.0004 44.61 27.9904 44.46 27.0204 44.17L25.6504 43.76L25.4904 39.805L25.7104 39.795ZM24.4404 27.83C24.0954 27.83 23.8154 27.55 23.8154 27.205C23.8154 26.99 23.6404 26.815 23.4254 26.815C23.2104 26.815 23.0354 26.99 23.0354 27.205C23.0354 27.845 23.4654 28.375 24.0504 28.545V28.82C24.0504 29.035 24.2254 29.21 24.4404 29.21C24.6554 29.21 24.8304 29.035 24.8304 28.82V28.55C25.4154 28.38 25.8454 27.845 25.8454 27.21C25.8454 26.435 25.2154 25.805 24.4404 25.805C24.0954 25.805 23.8154 25.525 23.8154 25.18C23.8154 24.835 24.0954 24.555 24.4404 24.555C24.7854 24.555 25.0654 24.835 25.0654 25.18C25.0654 25.395 25.2404 25.57 25.4554 25.57C25.6704 25.57 25.8454 25.395 25.8454 25.18C25.8454 24.54 25.4154 24.01 24.8304 23.84V23.565C24.8304 23.35 24.6554 23.175 24.4404 23.175C24.2254 23.175 24.0504 23.35 24.0504 23.565V23.84C23.4654 24.01 23.0354 24.545 23.0354 25.18C23.0354 25.955 23.6654 26.585 24.4404 26.585C24.7854 26.585 25.0654 26.865 25.0654 27.21C25.0654 27.55 24.7854 27.83 24.4404 27.83ZM31.0554 23.005C30.7104 23.005 30.4304 22.725 30.4304 22.38C30.4304 22.165 30.2554 21.99 30.0404 21.99C29.8254 21.99 29.6504 22.165 29.6504 22.38C29.6504 23.02 30.0804 23.55 30.6654 23.72V24C30.6654 24.215 30.8404 24.39 31.0554 24.39C31.2704 24.39 31.4454 24.215 31.4454 24V23.725C32.0304 23.555 32.4604 23.02 32.4604 22.385C32.4604 21.61 31.8304 20.98 31.0554 20.98C30.7104 20.98 30.4304 20.7 30.4304 20.355C30.4304 20.01 30.7104 19.73 31.0554 19.73C31.4004 19.73 31.6804 20.01 31.6804 20.355C31.6804 20.57 31.8554 20.745 32.0704 20.745C32.2854 20.745 32.4604 20.57 32.4604 20.355C32.4604 19.715 32.0304 19.185 31.4454 19.015V18.745C31.4454 18.53 31.2704 18.355 31.0554 18.355C30.8404 18.355 30.6654 18.53 30.6654 18.745V19.02C30.0804 19.19 29.6504 19.725 29.6504 20.36C29.6504 21.135 30.2804 21.765 31.0554 21.765C31.4004 21.765 31.6804 22.045 31.6804 22.39C31.6804 22.73 31.4004 23.005 31.0554 23.005Z" fill="white"/>
<path d="M38.0652 24.1899C37.7202 24.1899 37.4402 23.9099 37.4402 23.5649C37.4402 23.3499 37.2652 23.1749 37.0502 23.1749C36.8352 23.1749 36.6602 23.3499 36.6602 23.5649C36.6602 24.2049 37.0902 24.7349 37.6752 24.9049V25.1799C37.6752 25.3949 37.8502 25.5699 38.0652 25.5699C38.2802 25.5699 38.4552 25.3949 38.4552 25.1799V24.9049C39.0402 24.7349 39.4702 24.1999 39.4702 23.5649C39.4702 22.7899 38.8402 22.1599 38.0652 22.1599C37.7202 22.1599 37.4402 21.8799 37.4402 21.5349C37.4402 21.1899 37.7202 20.9099 38.0652 20.9099C38.4102 20.9099 38.6902 21.1899 38.6902 21.5349C38.6902 21.7499 38.8652 21.9249 39.0802 21.9249C39.2952 21.9249 39.4702 21.7499 39.4702 21.5349C39.4702 20.8949 39.0402 20.3649 38.4552 20.1949V19.9249C38.4552 19.7099 38.2802 19.5349 38.0652 19.5349C37.8502 19.5349 37.6752 19.7099 37.6752 19.9249V20.1999C37.0902 20.3699 36.6602 20.9049 36.6602 21.5399C36.6602 22.3149 37.2902 22.9449 38.0652 22.9449C38.4102 22.9449 38.6902 23.2249 38.6902 23.5699C38.6902 23.9099 38.4102 24.1899 38.0652 24.1899Z" fill="white"/>
</g>
<defs>
<clipPath id="clip0_39_664">
<rect width="32" height="32" fill="white" transform="translate(16 16)"/>
</clipPath>
</defs>
</svg>
