<svg width="512" height="512" viewBox="0 0 512 512" fill="none" xmlns="http://www.w3.org/2000/svg">
<rect width="512" height="512" fill="white"/>
<path d="M78.6545 261C74.4416 263 74.0203 264.742 72.7771 266.867C68.4428 267.284 64.4344 269.112 61.5222 272C58.6101 274.888 56.9995 278.632 57 282.512C57 291.201 68.8933 296 78.6545 296L118.255 295.5C126.394 295.5 133 289.62 133 282.375C133 275.445 126.955 269.827 119.287 269.355C118.589 266.206 118.255 265 114.885 263" stroke="#1C92F6" stroke-width="5" stroke-linecap="round"/>
<path d="M81.169 210.51V226.917C81.1709 227.533 81.4129 228.124 81.8428 228.562L94.2571 241.053V288C94.2571 288.616 94.5001 289.207 94.9327 289.643C95.3653 290.079 95.952 290.323 96.5637 290.323C97.1755 290.323 97.7622 290.079 98.1948 289.643C98.6273 289.207 98.8703 288.616 98.8703 288V240.1C98.8713 239.793 98.811 239.49 98.693 239.207C98.575 238.925 98.4017 238.669 98.1835 238.455L85.7822 225.964V210.51C87.719 209.95 89.3896 208.704 90.4866 207.002C91.5836 205.3 92.0331 203.255 91.7523 201.246C91.4715 199.236 90.4794 197.396 88.9586 196.065C87.4377 194.733 85.4906 194 83.4756 194C81.4606 194 79.5135 194.733 77.9927 196.065C76.4718 197.396 75.4797 199.236 75.1989 201.246C74.9181 203.255 75.3676 205.3 76.4646 207.002C77.5616 208.704 79.2323 209.95 81.169 210.51ZM83.4756 198.633C84.2189 198.633 84.9454 198.855 85.5634 199.271C86.1814 199.687 86.6631 200.278 86.9475 200.97C87.232 201.661 87.3064 202.422 87.1614 203.156C87.0164 203.891 86.6585 204.565 86.1329 205.095C85.6073 205.624 84.9377 205.984 84.2088 206.13C83.4798 206.277 82.7242 206.202 82.0375 205.915C81.3508 205.629 80.7639 205.143 80.351 204.521C79.938 203.899 79.7176 203.167 79.7176 202.418C79.7176 201.414 80.1136 200.451 80.8183 199.742C81.5231 199.032 82.4789 198.633 83.4756 198.633ZM119.267 217.48C117.048 217.484 114.921 218.373 113.352 219.954C111.782 221.534 110.899 223.677 110.896 225.912C110.914 227.252 111.252 228.568 111.881 229.749L105.544 236.132C105.114 236.57 104.872 237.161 104.87 237.776V288C104.87 288.616 105.113 289.207 105.546 289.643C105.978 290.079 106.565 290.323 107.177 290.323C107.789 290.323 108.375 290.079 108.808 289.643C109.24 289.207 109.483 288.616 109.483 288V238.69L114.978 233.143C116.083 233.802 117.325 234.196 118.606 234.294C119.887 234.391 121.173 234.19 122.364 233.706C123.555 233.222 124.62 232.468 125.475 231.502C126.33 230.536 126.952 229.385 127.294 228.137C127.635 226.89 127.687 225.58 127.444 224.31C127.202 223.039 126.672 221.842 125.895 220.811C125.119 219.78 124.117 218.943 122.967 218.366C121.818 217.788 120.552 217.485 119.267 217.48ZM119.267 229.697C118.524 229.697 117.797 229.475 117.179 229.059C116.561 228.643 116.08 228.052 115.795 227.361C115.511 226.669 115.436 225.908 115.581 225.174C115.726 224.439 116.084 223.765 116.61 223.236C117.135 222.706 117.805 222.346 118.534 222.2C119.263 222.054 120.019 222.129 120.705 222.415C121.392 222.702 121.979 223.187 122.392 223.809C122.805 224.432 123.025 225.163 123.025 225.912C123.027 226.41 122.931 226.904 122.743 227.365C122.555 227.825 122.278 228.244 121.929 228.597C121.58 228.95 121.165 229.23 120.708 229.421C120.251 229.612 119.762 229.71 119.267 229.71V229.697ZM75.3377 244.342L83.6959 252.721L83.0842 288C83.0842 288.616 83.3272 289.207 83.7597 289.643C84.1923 290.079 84.779 290.323 85.3908 290.323C86.0025 290.323 86.5892 290.079 87.0218 289.643C87.4544 289.207 87.6974 288.616 87.6974 288L88.3091 251.742C88.3039 251.131 88.0622 250.546 87.6353 250.111L78.4736 240.974C79.4135 239.15 79.6662 237.045 79.1851 235.048C78.704 233.051 77.5216 231.296 75.8563 230.109C74.191 228.921 72.1553 228.381 70.1253 228.587C68.0952 228.794 66.2079 229.733 64.812 231.232C63.4161 232.731 62.6059 234.688 62.5311 236.742C62.4562 238.796 63.1218 240.808 64.4048 242.406C65.6879 244.004 67.5017 245.08 69.5113 245.436C71.5209 245.792 73.5904 245.403 75.3377 244.342ZM67.2515 237.15C67.2592 236.403 67.4861 235.675 67.9037 235.058C68.3212 234.441 68.9108 233.962 69.5981 233.681C70.2854 233.401 71.0398 233.331 71.7662 233.482C72.4926 233.632 73.1586 233.996 73.6802 234.526C74.2019 235.057 74.556 235.732 74.6979 236.465C74.8397 237.198 74.7631 237.957 74.4775 238.647C74.192 239.336 73.7104 239.925 73.0932 240.339C72.4761 240.753 71.7511 240.974 71.0095 240.974C70.5127 240.974 70.0208 240.875 69.5624 240.682C69.1039 240.49 68.6878 240.207 68.3384 239.852C67.9889 239.496 67.7129 239.074 67.5264 238.611C67.3398 238.147 67.2464 237.65 67.2515 237.15ZM96.5637 229.227C96.8677 229.234 97.1701 229.181 97.4534 229.069C97.7367 228.958 97.9954 228.792 98.2146 228.579C98.4338 228.367 98.6092 228.113 98.7306 227.832C98.852 227.552 98.9171 227.249 98.9222 226.943V213.787C98.9222 213.17 98.6792 212.579 98.2466 212.144C97.814 211.708 97.2273 211.463 96.6156 211.463C96.0038 211.463 95.4171 211.708 94.9845 212.144C94.552 212.579 94.3089 213.17 94.3089 213.787V226.943C94.3188 227.544 94.5592 228.117 94.9796 228.543C95.3999 228.969 95.9677 229.214 96.5637 229.227Z" fill="url(#paint0_linear_109_98)"/>
<path d="M146.6 292V248.08H165.26C175.42 248.08 180.5 255.46 180.5 270.22C180.5 273.5 180.2 276.46 179.6 279.1C179 281.7 178.1 283.98 176.9 285.94C175.7 287.9 174.1 289.4 172.1 290.44C170.14 291.48 167.86 292 165.26 292H146.6ZM155 284.5H164.6C169.6 284.5 172.1 279.72 172.1 270.16C172.1 267.84 171.98 265.84 171.74 264.16C171.5 262.44 171.18 261.04 170.78 259.96C170.38 258.84 169.86 257.96 169.22 257.32C168.58 256.64 167.88 256.18 167.12 255.94C166.4 255.66 165.56 255.52 164.6 255.52H155V284.5Z" fill="#0974F1"/>
<path d="M184.947 255.4V250.12C184.947 249.08 185.427 248.56 186.387 248.56H192.687C193.567 248.56 194.007 249.08 194.007 250.12V255.4C194.007 255.84 193.887 256.18 193.647 256.42C193.447 256.66 193.127 256.78 192.687 256.78H186.387C186.107 256.78 185.847 256.74 185.607 256.66C185.407 256.54 185.247 256.38 185.127 256.18C185.007 255.94 184.947 255.68 184.947 255.4ZM185.247 292V260.14H193.647V292H185.247Z" fill="#0974F1"/>
<path d="M198.42 285.88C198.42 284.52 198.72 283.34 199.32 282.34C199.96 281.3 200.9 280.58 202.14 280.18C201.82 279.98 201.52 279.74 201.24 279.46C200.96 279.18 200.7 278.88 200.46 278.56C200.26 278.24 200.06 277.9 199.86 277.54C199.7 277.14 199.54 276.74 199.38 276.34C199.26 275.94 199.14 275.54 199.02 275.14C198.94 274.7 198.86 274.28 198.78 273.88C198.74 273.44 198.7 273.02 198.66 272.62C198.66 272.18 198.66 271.76 198.66 271.36C198.66 263.8 202.34 260.02 209.7 260.02H229.08V265.06L225.54 266.14C225.54 266.14 225.6 266.3 225.72 266.62C225.84 266.9 225.9 267.08 225.9 267.16C225.94 267.2 226 267.36 226.08 267.64C226.2 267.92 226.28 268.14 226.32 268.3C226.36 268.46 226.4 268.7 226.44 269.02C226.52 269.34 226.56 269.66 226.56 269.98C226.6 270.26 226.64 270.62 226.68 271.06C226.72 271.46 226.74 271.9 226.74 272.38C226.74 272.98 226.7 273.58 226.62 274.18C226.54 274.74 226.42 275.34 226.26 275.98C226.1 276.62 225.88 277.22 225.6 277.78C225.36 278.34 225.04 278.9 224.64 279.46C224.24 279.98 223.76 280.46 223.2 280.9C222.64 281.34 222 281.72 221.28 282.04C220.6 282.36 219.78 282.62 218.82 282.82C217.9 282.98 216.9 283.06 215.82 283.06H208.44C208 283.06 207.64 283.08 207.36 283.12C207.08 283.16 206.78 283.3 206.46 283.54C206.18 283.74 206.04 284.04 206.04 284.44C206.04 285.08 206.24 285.52 206.64 285.76C207.08 285.96 207.68 286.06 208.44 286.06H218.22C221.18 286.06 223.48 286.86 225.12 288.46C226.8 290.02 227.64 292.38 227.64 295.54V298.96C227.64 299.56 227.6 300.12 227.52 300.64C227.44 301.2 227.32 301.76 227.16 302.32C227.04 302.88 226.84 303.4 226.56 303.88C226.28 304.4 225.96 304.88 225.6 305.32C225.24 305.76 224.8 306.14 224.28 306.46C223.76 306.82 223.18 307.12 222.54 307.36C221.9 307.64 221.16 307.84 220.32 307.96C219.52 308.12 218.64 308.2 217.68 308.2H208.68C206.72 308.2 205 307.88 203.52 307.24C202.08 306.6 200.92 305.56 200.04 304.12C199.16 302.72 198.72 301 198.72 298.96V294.94L201.54 292C201.1 291.76 200.7 291.46 200.34 291.1C199.98 290.7 199.64 290.24 199.32 289.72C199.04 289.2 198.82 288.62 198.66 287.98C198.5 287.3 198.42 286.6 198.42 285.88ZM207.18 297.94C207.18 298.7 207.26 299.32 207.42 299.8C207.62 300.28 207.9 300.64 208.26 300.88C208.66 301.12 209.04 301.28 209.4 301.36C209.8 301.44 210.32 301.48 210.96 301.48H215.88C216.64 301.48 217.24 301.38 217.68 301.18C218.16 301.02 218.5 300.78 218.7 300.46C218.94 300.14 219.1 299.8 219.18 299.44C219.26 299.08 219.3 298.64 219.3 298.12V295.78C219.3 295.54 219.28 295.32 219.24 295.12C219.2 294.92 219.16 294.72 219.12 294.52C219.08 294.36 219 294.2 218.88 294.04C218.8 293.92 218.7 293.78 218.58 293.62C218.46 293.5 218.32 293.4 218.16 293.32C218 293.24 217.82 293.16 217.62 293.08C217.42 293 217.2 292.94 216.96 292.9C216.72 292.86 216.46 292.84 216.18 292.84H209.7L207.18 292.66V297.94ZM207.06 271.36C207.06 274.64 208.34 276.28 210.9 276.28H214.26C217.02 276.28 218.38 274.64 218.34 271.36C218.3 269.68 217.96 268.5 217.32 267.82C216.72 267.1 215.68 266.74 214.2 266.74H211.02C210.18 266.74 209.48 266.88 208.92 267.16C208.4 267.4 208 267.76 207.72 268.24C207.48 268.68 207.3 269.14 207.18 269.62C207.1 270.1 207.06 270.68 207.06 271.36Z" fill="#0974F1"/>
<path d="M232.115 255.4V250.12C232.115 249.08 232.595 248.56 233.555 248.56H239.855C240.735 248.56 241.175 249.08 241.175 250.12V255.4C241.175 255.84 241.055 256.18 240.815 256.42C240.615 256.66 240.295 256.78 239.855 256.78H233.555C233.275 256.78 233.015 256.74 232.775 256.66C232.575 256.54 232.415 256.38 232.295 256.18C232.175 255.94 232.115 255.68 232.115 255.4ZM232.415 292V260.14H240.815V292H232.415Z" fill="#0974F1"/>
<path d="M244.388 266.5V261.82L249.548 260.08L250.928 251.2H257.948V260.08H265.088V266.5H257.948V279.28C257.948 280.76 258.068 281.96 258.308 282.88C258.548 283.76 258.848 284.38 259.208 284.74C259.568 285.06 260.048 285.34 260.648 285.58C263.048 286.42 264.388 286.84 264.668 286.84V292H257.348C254.868 292 252.948 291.12 251.588 289.36C250.228 287.56 249.548 284.64 249.548 280.6V266.5H244.388Z" fill="#0974F1"/>
<path d="M268.14 283.9V280.9C268.14 279.66 268.3 278.54 268.62 277.54C268.98 276.54 269.52 275.62 270.24 274.78C270.96 273.94 271.92 273.3 273.12 272.86C274.36 272.38 275.82 272.14 277.5 272.14C279.06 272.14 280.6 272.16 282.12 272.2C283.68 272.2 285.26 272.18 286.86 272.14C286.9 270.82 286.9 270.14 286.86 270.1C286.86 269.26 286.76 268.58 286.56 268.06C286.4 267.54 286.12 267.14 285.72 266.86C285.32 266.58 284.88 266.4 284.4 266.32C283.92 266.24 283.32 266.2 282.6 266.2C280 266.2 275.54 266.42 269.22 266.86V261.7C272.78 260.3 277.62 259.58 283.74 259.54C287.42 259.54 290.26 260.32 292.26 261.88C294.26 263.4 295.26 266.04 295.26 269.8V292H288.6L286.86 288.52C286.7 288.8 286.18 289.24 285.3 289.84C284.46 290.4 283.26 290.98 281.7 291.58C280.14 292.14 278.62 292.4 277.14 292.36C274.26 292.28 272.04 291.42 270.48 289.78C268.92 288.1 268.14 286.14 268.14 283.9ZM276.54 282.7C276.54 283.9 276.8 284.7 277.32 285.1C277.84 285.46 278.58 285.64 279.54 285.64C280.02 285.64 280.52 285.6 281.04 285.52C281.56 285.4 282.04 285.28 282.48 285.16C282.96 285 283.42 284.84 283.86 284.68C284.3 284.48 284.7 284.3 285.06 284.14C285.42 283.94 285.72 283.78 285.96 283.66C286.24 283.5 286.46 283.38 286.62 283.3C286.78 283.18 286.86 283.12 286.86 283.12V277.3L279.12 277.9C278.6 277.94 278.16 278.08 277.8 278.32C277.44 278.52 277.16 278.78 276.96 279.1C276.8 279.42 276.68 279.74 276.6 280.06C276.56 280.38 276.54 280.74 276.54 281.14V282.7Z" fill="#0974F1"/>
<path d="M302.153 292V248.02H310.553V292H302.153Z" fill="#0974F1"/>
<path d="M315.8 284.44V248.08H320.24V284.44C320.24 284.88 320.28 285.26 320.36 285.58C320.44 285.9 320.52 286.18 320.6 286.42C320.72 286.62 320.88 286.8 321.08 286.96C321.28 287.12 321.46 287.24 321.62 287.32C321.82 287.4 322.06 287.46 322.34 287.5C322.62 287.54 322.84 287.56 323 287.56C323.2 287.56 323.46 287.56 323.78 287.56C323.78 287.56 323.8 287.56 323.84 287.56C323.88 287.56 323.92 287.56 323.96 287.56H342.32V292H323.96C322.8 292 321.8 291.92 320.96 291.76C320.12 291.6 319.28 291.28 318.44 290.8C317.6 290.32 316.94 289.54 316.46 288.46C316.02 287.38 315.8 286.04 315.8 284.44ZM347.398 276.52C347.398 270.08 348.418 265.7 350.458 263.38C352.498 261.02 356.158 259.84 361.438 259.84C366.798 259.84 370.478 261.04 372.478 263.44C374.478 265.8 375.478 270.16 375.478 276.52C375.478 282.48 374.478 286.6 372.478 288.88C370.478 291.16 366.798 292.3 361.438 292.3C356.158 292.3 352.498 291.12 350.458 288.76C348.418 286.4 347.398 282.32 347.398 276.52ZM351.838 276.52C351.838 279.12 352.018 281.2 352.378 282.76C352.778 284.32 353.438 285.46 354.358 286.18C355.318 286.9 356.278 287.36 357.238 287.56C358.238 287.76 359.638 287.86 361.438 287.86C363.278 287.86 364.698 287.76 365.698 287.56C366.738 287.36 367.698 286.9 368.578 286.18C369.498 285.42 370.138 284.28 370.498 282.76C370.858 281.2 371.038 279.12 371.038 276.52C371.038 273.68 370.878 271.44 370.558 269.8C370.278 268.16 369.698 266.94 368.818 266.14C367.938 265.3 366.978 264.78 365.938 264.58C364.938 264.38 363.438 264.28 361.438 264.28C359.918 264.28 358.718 264.34 357.838 264.46C356.958 264.58 356.078 264.86 355.198 265.3C354.318 265.74 353.658 266.4 353.218 267.28C352.818 268.16 352.478 269.36 352.198 270.88C351.958 272.36 351.838 274.24 351.838 276.52ZM381.5 276.52C381.5 270.08 382.52 265.7 384.56 263.38C386.6 261.02 390.26 259.84 395.54 259.84C400.9 259.84 404.58 261.04 406.58 263.44C408.58 265.8 409.58 270.16 409.58 276.52C409.58 282.48 408.58 286.6 406.58 288.88C404.58 291.16 400.9 292.3 395.54 292.3C390.26 292.3 386.6 291.12 384.56 288.76C382.52 286.4 381.5 282.32 381.5 276.52ZM385.94 276.52C385.94 279.12 386.12 281.2 386.48 282.76C386.88 284.32 387.54 285.46 388.46 286.18C389.42 286.9 390.38 287.36 391.34 287.56C392.34 287.76 393.74 287.86 395.54 287.86C397.38 287.86 398.8 287.76 399.8 287.56C400.84 287.36 401.8 286.9 402.68 286.18C403.6 285.42 404.24 284.28 404.6 282.76C404.96 281.2 405.14 279.12 405.14 276.52C405.14 273.68 404.98 271.44 404.66 269.8C404.38 268.16 403.8 266.94 402.92 266.14C402.04 265.3 401.08 264.78 400.04 264.58C399.04 264.38 397.54 264.28 395.54 264.28C394.02 264.28 392.82 264.34 391.94 264.46C391.06 264.58 390.18 264.86 389.3 265.3C388.42 265.74 387.76 266.4 387.32 267.28C386.92 268.16 386.58 269.36 386.3 270.88C386.06 272.36 385.94 274.24 385.94 276.52ZM416.202 292V260.14H419.322L420.642 263.98C420.882 263.82 421.362 263.54 422.082 263.14C422.842 262.7 423.362 262.4 423.642 262.24C423.962 262.04 424.442 261.78 425.082 261.46C425.762 261.14 426.302 260.92 426.702 260.8C427.142 260.64 427.662 260.46 428.262 260.26C428.862 260.06 429.462 259.94 430.062 259.9C430.702 259.82 431.342 259.78 431.982 259.78C433.982 259.78 435.782 260.2 437.382 261.04C438.982 261.88 440.122 263.02 440.802 264.46C444.562 261.34 448.842 259.78 453.642 259.78C456.442 259.78 458.782 260.74 460.662 262.66C462.542 264.58 463.482 267.04 463.482 270.04V292H459.042V270.04C459.042 268.28 458.522 266.88 457.482 265.84C456.482 264.76 455.202 264.22 453.642 264.22C451.242 264.22 449.162 264.46 447.402 264.94C445.682 265.42 443.842 266.3 441.882 267.58V269.92V292H437.442V270.04C437.442 268.28 436.922 266.88 435.882 265.84C434.882 264.76 433.582 264.22 431.982 264.22C430.502 264.22 429.102 264.38 427.782 264.7C426.502 265.02 425.502 265.34 424.782 265.66C424.062 265.94 422.682 266.58 420.642 267.58V292H416.202Z" fill="#40C9FF"/>
<path d="M144.35 223.26V221.04H159.59V223.26H152.99V243H150.77V223.26H144.35ZM162.144 243V219.48H164.364V228.93C164.424 228.91 164.644 228.79 165.024 228.57C165.404 228.33 165.634 228.19 165.714 228.15C165.814 228.11 166.034 228 166.374 227.82C166.714 227.62 166.954 227.5 167.094 227.46C167.234 227.42 167.464 227.34 167.784 227.22C168.104 227.1 168.364 227.02 168.564 226.98C168.784 226.94 169.044 226.9 169.344 226.86C169.644 226.82 169.944 226.8 170.244 226.8C171.764 226.8 172.964 227.3 173.844 228.3C174.724 229.3 175.164 230.5 175.164 231.9V243H172.944V231.9C172.944 230.94 172.694 230.22 172.194 229.74C171.714 229.26 171.064 229.02 170.244 229.02C169.484 229.02 168.764 229.1 168.084 229.26C167.404 229.42 166.854 229.59 166.434 229.77C166.034 229.93 165.344 230.25 164.364 230.73V243H162.144ZM178.162 234.96C178.162 233.2 178.282 231.79 178.522 230.73C178.762 229.65 179.192 228.84 179.812 228.3C180.452 227.74 181.152 227.38 181.912 227.22C182.692 227.04 183.762 226.95 185.122 226.95C186.222 226.95 187.082 227 187.702 227.1C188.322 227.2 188.932 227.43 189.532 227.79C190.132 228.15 190.562 228.72 190.822 229.5C191.082 230.28 191.212 231.31 191.212 232.59C191.212 235.03 189.842 236.25 187.102 236.25H180.382C180.382 238.11 180.592 239.36 181.012 240C181.432 240.62 182.232 240.93 183.412 240.93C183.552 240.93 183.762 240.93 184.042 240.93C184.322 240.93 184.532 240.93 184.672 240.93C187.472 240.93 189.552 240.83 190.912 240.63V242.31C188.932 242.87 186.432 243.15 183.412 243.15C181.392 243.15 180.012 242.57 179.272 241.41C178.532 240.25 178.162 238.1 178.162 234.96ZM180.382 234.06H187.102C188.362 234.06 188.992 233.57 188.992 232.59C188.992 231.05 188.762 230.1 188.302 229.74C187.862 229.36 186.812 229.17 185.152 229.17C184.452 229.17 183.932 229.18 183.592 229.2C183.272 229.22 182.882 229.28 182.422 229.38C181.982 229.46 181.662 229.6 181.462 229.8C181.282 230 181.082 230.28 180.862 230.64C180.662 231 180.532 231.46 180.472 232.02C180.412 232.58 180.382 233.26 180.382 234.06Z" fill="#40C9FF"/>
<defs>
<linearGradient id="paint0_linear_109_98" x1="62.6383" y1="245.986" x2="127.638" y2="245.986" gradientUnits="userSpaceOnUse">
<stop stop-color="#40C9FF"/>
<stop offset="0.346875" stop-color="#0974F1"/>
<stop offset="1" stop-color="#0974F1"/>
</linearGradient>
</defs>
</svg>
